<svg xmlns="http://www.w3.org/2000/svg" width="79" height="27" viewBox="0 0 79 27" fill="none">
  <path d="M0.394531 16.4009L4.04962 14.7162C4.62078 16.0867 5.70586 17.4003 7.61905 17.4003C8.96109 17.4003 10.1887 16.7435 10.1887 15.1729C10.1887 13.9738 9.53186 13.4026 7.59024 12.6317L6.33385 12.1462C3.62135 11.0611 1.137 9.57623 1.137 6.29258C1.137 2.7804 4.07843 0.638672 7.59024 0.638672C11.1597 0.638672 13.3014 2.80882 14.272 4.95055L10.9311 6.83492C10.0462 5.29316 9.01833 4.63636 7.76194 4.63636C6.53397 4.63636 5.59178 5.20751 5.59178 6.34982C5.59178 7.23477 6.10571 7.92 8.21863 8.77692L9.58909 9.31926C13.2442 10.7758 14.872 12.4316 14.872 15.2301C14.872 19.456 11.1024 21.4836 7.67589 21.4836C4.10685 21.4836 1.16581 19.3703 0.394531 16.4009Z" fill="black"/>
  <path d="M25.2379 17.2289V20.5982C24.6667 21.1693 23.4103 21.3691 22.3825 21.3691C19.6408 21.3691 17.6419 20.0274 17.6419 16.6293V9.8619H15.4434V6.34971H17.6419V2.55176H22.0683V6.34971H25.1803V9.8619H22.0683V15.9153C22.0683 16.6577 22.4966 17.4574 23.8386 17.4574C24.1812 17.4574 24.6952 17.4002 25.2379 17.2289Z" fill="black"/>
  <path d="M34.4305 10.0032C35.9857 10.0032 37.4146 10.8637 37.9198 12.4544H42.4275V6.34816H37.9988V8.0336H37.9159C37.687 7.49284 36.1436 6.06396 33.5187 6.06396C30.1479 6.06396 26.4375 8.60594 26.4375 13.7728C26.4375 18.9436 30.1479 21.4855 33.5187 21.4855C36.1436 21.4855 37.687 20.0567 37.9159 19.5119H37.9988V21.3711H42.4275V15.0951H37.9159C37.4107 16.6818 35.9857 17.5423 34.4305 17.5423C32.5477 17.5423 30.807 16.1726 30.807 13.7728C30.807 11.3768 32.5477 10.0032 34.4305 10.0032Z" fill="black"/>
  <path d="M78.1175 13.7728C78.1175 18.8291 74.1229 21.4855 70.2389 21.4855C66.7101 21.4855 63.0866 19.2909 62.4551 15.0951H68.889L66.9628 17.0213L68.8298 18.8883L73.0138 14.7082C73.0454 14.6767 73.073 14.6451 73.1006 14.6135L73.1756 14.5109C73.1914 14.4872 73.2032 14.4675 73.2151 14.4438L73.2743 14.3372L73.3848 13.9622L73.3888 13.9543L73.3927 13.903C73.3967 13.8596 73.4006 13.8201 73.4006 13.7649C73.4006 13.7294 73.3967 13.6859 73.3967 13.6859L73.3572 13.4452L73.2427 13.1491C73.2309 13.1294 73.219 13.1096 73.2151 13.1057C73.2032 13.082 73.1914 13.0583 73.1796 13.0425L73.0888 12.9202C73.0651 12.8926 73.0414 12.8649 73.0138 12.8412L68.8298 8.65725L66.9628 10.5243L68.889 12.4544H62.4551C63.0827 8.25859 66.7062 6.06396 70.2389 6.06396C74.1229 6.06396 78.1175 8.72041 78.1175 13.7728Z" fill="black"/>
  <path d="M53.1044 17.5418C51.1624 17.5418 49.4217 16.1998 49.4217 13.7723C49.4217 11.3448 51.1624 10.0027 53.1044 10.0027C54.6122 10.0027 56.045 10.879 56.5542 12.4539H61.0145C60.4422 8.17126 57.0871 6.06348 54.0201 6.06348C51.3913 6.06348 49.8519 7.49235 49.623 8.03311H49.5361V6.34767H45.1113V26.6242H49.5361V19.5115H49.623C49.8519 20.0562 51.3913 21.485 54.0201 21.485C57.0871 21.485 60.4422 19.3772 61.0145 15.0946H56.5542C56.0411 16.6695 54.6122 17.5418 53.1044 17.5418Z" fill="black"/>
</svg>