<svg xmlns="http://www.w3.org/2000/svg" width="14" height="13" viewBox="0 0 14 13" fill="none">
  <path d="M7.39772 11.1831C7.31141 11.1636 7.22798 11.1365 7.14398 11.1118C7.12269 11.1055 7.1014 11.0991 7.08069 11.0928C6.99841 11.0675 6.91729 11.041 6.83616 11.0128C6.82523 11.0088 6.81372 11.0048 6.80279 11.0008C6.73029 10.9749 6.65837 10.9484 6.58703 10.9208C6.56689 10.9127 6.54675 10.9052 6.52661 10.8972C6.44836 10.8661 6.37069 10.8339 6.29359 10.8005C6.27806 10.7936 6.26252 10.7867 6.24699 10.7798C6.18082 10.7499 6.1158 10.7194 6.05079 10.6883C6.0318 10.6791 6.01339 10.6705 5.99382 10.6613C5.94262 10.6366 5.89198 10.6095 5.84193 10.5842C5.80798 10.5664 5.77404 10.5497 5.74066 10.5313C5.6791 10.4979 5.61869 10.4639 5.55827 10.4288C5.53813 10.4173 5.51742 10.407 5.49671 10.3949C5.41673 10.3483 5.33733 10.2994 5.25966 10.2499C5.23837 10.2361 5.21708 10.2211 5.19579 10.2073C5.13883 10.1711 5.08244 10.1337 5.02721 10.0951C5.0088 10.083 4.99096 10.0692 4.97312 10.0572C4.91961 10.0192 4.86611 9.98121 4.81375 9.94208C4.78958 9.92425 4.76657 9.90641 4.74298 9.88858C4.69465 9.85175 4.64632 9.81435 4.59914 9.7758C4.57785 9.75854 4.55598 9.74128 4.5347 9.72402C4.47428 9.67396 4.41444 9.62448 4.35518 9.5727C4.34885 9.56752 4.34195 9.56234 4.33562 9.55659C4.27175 9.50078 4.20904 9.44324 4.1469 9.38513C4.12906 9.36787 4.11123 9.35118 4.09396 9.3345C4.04793 9.29077 4.00306 9.24647 3.95875 9.20159C3.94092 9.18375 3.92308 9.16649 3.90582 9.14865C3.84943 9.09054 3.7942 9.03186 3.73954 8.97259C3.73666 8.96972 3.73378 8.96684 3.73148 8.96396C3.67395 8.90125 3.61814 8.83681 3.5629 8.77179C3.54794 8.75395 3.53356 8.73727 3.5186 8.71943C3.47775 8.66995 3.4369 8.61989 3.3972 8.56926C3.38224 8.55143 3.36728 8.53244 3.35289 8.51403C3.30514 8.45189 3.25853 8.39032 3.21308 8.32761C1.949 6.60381 1.49504 4.22582 2.50538 2.27303L1.61011 3.4088C0.462828 5.0578 0.605519 7.20334 1.4818 8.95533C1.50251 8.99734 1.52438 9.03876 1.54624 9.08019C1.56005 9.10608 1.57271 9.13312 1.58709 9.15901C1.59515 9.17455 1.60435 9.18951 1.61241 9.20447C1.62737 9.23266 1.6429 9.25913 1.65786 9.28617C1.68491 9.33392 1.7131 9.38168 1.74129 9.42944C1.75683 9.45533 1.77294 9.48179 1.78905 9.50768C1.82069 9.55889 1.85291 9.60895 1.88628 9.65958C1.90009 9.68087 1.91333 9.70273 1.92771 9.72345C1.97374 9.79134 2.02034 9.85923 2.0681 9.92655C2.06925 9.92828 2.07098 9.93001 2.07213 9.93173C2.07961 9.94209 2.08824 9.95302 2.09572 9.96395C2.13714 10.0215 2.1803 10.0784 2.22402 10.1343C2.24013 10.155 2.25625 10.1757 2.27236 10.1958C2.3109 10.2447 2.35061 10.2931 2.39088 10.3414C2.40584 10.3592 2.4208 10.3776 2.43633 10.3955C2.49042 10.4588 2.54508 10.5221 2.60146 10.5842L2.60492 10.5871C2.60722 10.5899 2.60952 10.5917 2.61125 10.5946C2.66591 10.6544 2.72229 10.7131 2.77868 10.7712C2.79651 10.7896 2.81435 10.8074 2.83219 10.8253C2.87592 10.8696 2.92079 10.9133 2.96625 10.9565C2.98466 10.9737 3.00249 10.9916 3.02091 11.0088C3.08132 11.0658 3.14231 11.1216 3.20445 11.1762L3.20733 11.1785C3.21768 11.1878 3.22919 11.197 3.23955 11.2056C3.29421 11.2528 3.35002 11.2999 3.4064 11.3466C3.42942 11.365 3.45243 11.3834 3.47545 11.4018C3.52148 11.4386 3.5675 11.4749 3.61411 11.5105C3.63885 11.5295 3.66359 11.5485 3.68833 11.5669C3.73954 11.6049 3.7919 11.6423 3.84426 11.6785C3.86324 11.6924 3.88165 11.7056 3.90122 11.7188C3.9064 11.7223 3.91157 11.7263 3.91675 11.7297C3.96623 11.7643 4.01744 11.7965 4.06807 11.8299C4.08994 11.8442 4.11123 11.8592 4.13367 11.8736C4.21192 11.9231 4.29074 11.972 4.37072 12.0192C4.39258 12.0318 4.41444 12.0439 4.43631 12.056C4.495 12.0899 4.55426 12.1233 4.6141 12.1561C4.64632 12.1734 4.67969 12.19 4.71248 12.2067C4.75449 12.2286 4.79706 12.2516 4.83964 12.2729C4.84942 12.2781 4.85978 12.2827 4.86898 12.2873C4.88624 12.2953 4.90351 12.3034 4.92134 12.3126C4.98808 12.3442 5.0554 12.3759 5.1233 12.4064C5.13768 12.4127 5.15149 12.419 5.16587 12.4254C5.24355 12.4593 5.3218 12.4921 5.4012 12.5232C5.42018 12.5312 5.43917 12.5381 5.45873 12.5456C5.53181 12.5738 5.60603 12.602 5.68083 12.6279C5.69003 12.6313 5.69924 12.6348 5.70902 12.6377C5.79072 12.6664 5.87357 12.6929 5.95643 12.7188C5.97599 12.7246 5.99613 12.7309 6.01626 12.7366C6.10084 12.762 6.18485 12.7924 6.2723 12.8086C11.8206 13.8206 13.4322 9.47431 13.4322 9.47431C12.0789 11.2378 9.67617 11.7027 7.39944 11.1855L7.39772 11.1831ZM5.3989 6.68609C5.52317 6.86445 5.66126 7.07619 5.82582 7.21945C5.88565 7.28504 5.94837 7.34949 6.01224 7.41278C6.02835 7.42946 6.04503 7.445 6.06114 7.46111C6.12328 7.52152 6.186 7.58021 6.25101 7.63774C6.25389 7.63947 6.25619 7.64235 6.25907 7.64465L6.26079 7.64637C6.33272 7.70966 6.40751 7.77065 6.48289 7.82992C6.49957 7.84257 6.51626 7.85638 6.53352 7.86962C6.60947 7.92773 6.68656 7.98469 6.76597 8.03935C6.76827 8.04107 6.77057 8.0428 6.77287 8.04453C6.80797 8.06869 6.84364 8.09113 6.87874 8.11472C6.896 8.12565 6.91211 8.13774 6.92937 8.14809C6.98575 8.18434 7.04329 8.22001 7.1014 8.25339C7.10946 8.25856 7.11751 8.26259 7.12557 8.26719C7.17563 8.29654 7.22683 8.32473 7.27804 8.35235C7.29588 8.36271 7.31429 8.37134 7.33212 8.38054C7.36722 8.39895 7.40289 8.41737 7.43857 8.43578C7.44375 8.43808 7.4495 8.44096 7.45468 8.44268C7.52775 8.47893 7.6014 8.51345 7.67677 8.54625C7.69288 8.55315 7.70956 8.55948 7.72567 8.56639C7.78609 8.59228 7.8465 8.61702 7.90749 8.64061C7.93338 8.65039 7.95985 8.6596 7.98516 8.66938C8.04098 8.69009 8.09621 8.70908 8.1526 8.72749C8.17791 8.73554 8.20265 8.7436 8.22797 8.75165C8.30795 8.77639 8.38677 8.80804 8.46962 8.82185C12.7532 9.53127 13.7423 6.23327 13.7423 6.23327C12.851 7.51749 11.1244 8.12968 9.28204 7.65155C9.20034 7.62969 9.11979 7.60667 9.03924 7.58136C9.0145 7.57388 8.9909 7.56582 8.96616 7.55777C8.9092 7.53936 8.85282 7.51979 8.79643 7.49908C8.77054 7.4893 8.74522 7.48009 8.71991 7.47031C8.65834 7.44672 8.59735 7.42198 8.53752 7.39667C8.52083 7.38919 8.50415 7.38286 8.48804 7.37595C8.41266 7.34316 8.33786 7.30864 8.26422 7.27239C8.22624 7.25398 8.18942 7.23441 8.15202 7.21543C8.13073 7.20449 8.10887 7.19356 8.08758 7.18205C8.03983 7.15616 7.99264 7.12912 7.94604 7.10208C7.93511 7.09575 7.92303 7.08942 7.91209 7.08309C7.85398 7.04914 7.79702 7.01405 7.74006 6.97837C7.7228 6.96744 7.70554 6.95536 7.68828 6.94385C7.65088 6.91969 7.61348 6.89495 7.57723 6.87021C7.49841 6.81555 7.42131 6.75858 7.34593 6.70105C7.32867 6.68724 7.31083 6.674 7.29358 6.6602C6.48749 6.02327 5.84826 5.15331 5.54389 4.16656C5.22513 3.14356 5.29418 1.99455 5.84595 1.06246L5.16817 2.01929C4.33849 3.21318 4.38337 4.81155 5.03066 6.07447C5.1394 6.28621 5.26138 6.49162 5.39774 6.68724L5.3989 6.68609ZM9.91437 5.20912C9.94947 5.22236 9.98514 5.23386 10.0208 5.24595C10.0363 5.25055 10.0519 5.2563 10.068 5.26091C10.1186 5.27644 10.1687 5.29543 10.2205 5.30463C12.5858 5.76147 13.2273 4.09061 13.3982 3.84493C12.8361 4.6539 11.8919 4.84837 10.7331 4.56702C10.6416 4.54458 10.5409 4.51178 10.4523 4.48013C10.339 4.43986 10.2279 4.39383 10.1192 4.34205C9.91322 4.24308 9.71702 4.12341 9.5352 3.9859C8.49839 3.19937 7.85398 1.69824 8.53061 0.475586L8.1641 0.980182C7.67504 1.69997 7.62729 2.59408 7.96618 3.38867C8.32406 4.23273 9.05765 4.8944 9.91322 5.20855L9.91437 5.20912Z" fill="black"/>
</svg>