<svg xmlns="http://www.w3.org/2000/svg" width="21" height="26" viewBox="0 0 21 26" fill="none">
  <path d="M15.3077 0.944291C14.1441 1.07857 12.4972 2.10518 11.6796 3.20296C11.2079 3.83199 10.9305 4.43233 10.6904 5.33589L10.5703 5.78755L10.576 6.26802C10.5818 6.53108 10.5961 6.77693 10.6104 6.81685C10.6476 6.91133 10.719 6.92561 11.2221 6.92842C11.6396 6.93123 11.6653 6.92842 12.0226 6.82271C12.9775 6.54537 13.678 6.12788 14.1755 5.53609C14.2956 5.39021 14.4757 5.19576 14.57 5.09859C14.8845 4.78987 15.2877 4.10359 15.5107 3.50899C15.7337 2.91133 15.8337 2.35664 15.8623 1.56758L15.8795 1.06148L15.8051 0.98726C15.7223 0.904252 15.6765 0.901445 15.3077 0.944291Z" fill="black"/>
  <path d="M15.0415 6.85407C14.4755 6.8827 12.9516 7.30585 11.8566 7.73469C11.1934 7.99488 11.1934 7.99488 11.0618 8.01777C10.8331 8.05494 10.2728 7.89191 9.30927 7.50306C8.79752 7.30012 8.27149 7.1457 7.49381 6.96851C7.16786 6.89698 6.62754 6.88844 6.39311 6.95417C6.29872 6.97987 6.00144 7.03999 5.73271 7.0857C5.15522 7.18861 4.82926 7.2887 4.39469 7.50306C3.08238 8.14356 2.18751 9.06416 1.47849 10.5051C1.16398 11.1398 0.932443 11.7603 0.760873 12.4208C0.506418 13.4015 0.500711 15.2827 0.749429 16.4235C0.778055 16.5636 0.80375 16.7294 0.80375 16.7952C0.80375 16.9324 0.829507 17.0353 1.06971 17.9817C1.29267 18.8566 1.26981 18.7851 1.69581 19.8545C2.29331 21.3555 2.482 21.6872 3.7028 23.3711C4.20313 24.0602 4.45759 24.3747 4.82639 24.7492C5.21238 25.1437 5.524 25.3725 5.96424 25.5899C6.46171 25.8329 6.67903 25.8872 7.13642 25.8843C7.72248 25.8843 8.19425 25.7642 9.09199 25.3868C9.65809 25.1495 9.69526 25.1381 10.7245 24.9265C11.0332 24.8607 11.3192 24.8665 11.7537 24.938C11.9024 24.9608 12.1254 24.9952 12.2455 25.0123C12.4885 25.0466 12.7344 25.1267 13.3691 25.3811C14.1353 25.6899 14.6756 25.8272 15.2417 25.8615C16.0651 25.9129 16.8599 25.5469 17.709 24.7321C18.5753 23.8944 19.3844 22.7479 20.2021 21.2011C20.4222 20.7837 20.7738 19.9288 20.8339 19.6715C20.8596 19.5686 20.9025 19.4399 20.934 19.3885C20.9626 19.3369 20.9883 19.2654 20.9883 19.2341C20.9883 19.1311 20.7796 18.9681 20.4108 18.7823C19.716 18.4249 19.0327 17.8131 18.5724 17.124C18.2437 16.6294 17.912 15.8889 17.8291 15.4514C17.689 14.731 17.649 13.9418 17.729 13.3929C17.7491 13.2499 17.8205 12.9497 17.8891 12.7211C18.1836 11.7289 18.3866 11.3314 18.8469 10.8397C18.987 10.6939 19.1014 10.5595 19.1014 10.548C19.1014 10.4994 19.8018 9.91334 19.9733 9.81898C20.0677 9.76466 20.1878 9.68177 20.2392 9.63026C20.3965 9.47584 20.3736 9.41584 19.979 8.95271C19.4502 8.33228 18.784 7.82337 18.0007 7.44312C17.5118 7.20576 17.1744 7.08851 16.7026 6.99128C16.2195 6.88844 15.499 6.82838 15.0415 6.85407Z" fill="black"/>
</svg>