<svg xmlns="http://www.w3.org/2000/svg" width="15" height="13" viewBox="0 0 15 13" fill="none">
  <path d="M0.708984 11.6309V10.9025C0.708984 9.29347 2.01341 7.98901 3.6225 7.98901H6.53602C8.14509 7.98901 9.44954 9.29347 9.44954 10.9025V11.6309M9.44954 5.80387C10.6564 5.80387 11.6347 4.82555 11.6347 3.61873C11.6347 2.41192 10.6564 1.43359 9.44954 1.43359M13.8198 11.6309V10.9025C13.8198 9.29347 12.5154 7.98901 10.9063 7.98901H10.5421M7.2644 3.61873C7.2644 4.82555 6.28612 5.80387 5.07926 5.80387C3.87245 5.80387 2.89412 4.82555 2.89412 3.61873C2.89412 2.41192 3.87245 1.43359 5.07926 1.43359C6.28612 1.43359 7.2644 2.41192 7.2644 3.61873Z" stroke="black" stroke-linecap="round" stroke-linejoin="round"/>
</svg>