<svg xmlns="http://www.w3.org/2000/svg" width="28" height="35" viewBox="0 0 28 28" fill="none">
  <path d="M0.5 8C0.5 3.85786 3.85786 0.5 8 0.5H20C24.1421 0.5 27.5 3.85786 27.5 8V20C27.5 24.1421 24.1421 27.5 20 27.5H8C3.85786 27.5 0.5 24.1421 0.5 20V8Z" stroke="#CDCFD9"/>
  <path d="M18.8751 9.1249C18.6565 8.90628 18.302 8.90628 18.0834 9.1249L14 13.2083L9.91658 9.1249C9.69797 8.90628 9.34352 8.90628 9.1249 9.1249C8.90628 9.34352 8.90628 9.69797 9.1249 9.91658L13.2083 14L9.12491 18.0834C8.90629 18.3021 8.90629 18.6565 9.12491 18.8751C9.34353 19.0937 9.69798 19.0937 9.9166 18.8751L14 14.7917L18.0834 18.8751C18.302 19.0937 18.6565 19.0937 18.8751 18.8751C19.0937 18.6565 19.0937 18.3021 18.8751 18.0835L14.7917 14L18.8751 9.91658C19.0937 9.69797 19.0937 9.34352 18.8751 9.1249Z" fill="#0F0F0F"/>
</svg>