<svg xmlns="http://www.w3.org/2000/svg" width="17" height="18" viewBox="0 0 17 18" fill="none">
  <path d="M11.5078 2.01753H11.6749C11.583 2.01753 11.5078 1.94231 11.5078 1.85037V2.01753H5.15604V1.85037C5.15604 1.94231 5.08083 2.01753 4.98888 2.01753H5.15604V3.5219H3.65167V1.85037C3.65167 1.11282 4.25131 0.513184 4.98888 0.513184H11.6749C12.4125 0.513184 13.0122 1.11282 13.0122 1.85037V3.5219H11.5078V2.01753ZM0.977249 3.5219H15.6866C16.0564 3.5219 16.3552 3.82068 16.3552 4.19049V4.85912C16.3552 4.95103 16.28 5.02626 16.1881 5.02626H14.926L14.41 15.9538C14.3766 16.6663 13.7873 17.2284 13.0749 17.2284H3.58897C2.8744 17.2284 2.28728 16.6684 2.25386 15.9538L1.73778 5.02626H0.475784C0.383835 5.02626 0.308594 4.95103 0.308594 4.85912V4.19049C0.308594 3.82068 0.607391 3.5219 0.977249 3.5219ZM3.74986 15.724H12.914L13.4196 5.02626H3.24423L3.74986 15.724Z" fill="#E98371"/>
  <path d="M14.1972 4.39175L13.5102 16.4498H3.17673L2.58789 4.20947L14.1972 4.39175Z" fill="#E98371"/>
</svg>