<svg xmlns="http://www.w3.org/2000/svg" width="43" height="46" viewBox="0 0 43 46" fill="none">
  <path d="M0.5 10.8047C0.5 5.55797 4.75329 1.30469 10 1.30469H32.1113C37.358 1.30469 41.6113 5.55798 41.6113 10.8047V35.8125C41.6113 41.0592 37.358 45.3124 32.1113 45.3124H10C4.7533 45.3124 0.5 41.0591 0.5 35.8124V10.8047Z" stroke="#E6E6E6"/>
  <path d="M13.919 26.0028L12.9596 30.1434C12.8925 30.45 12.9675 30.7704 13.1635 31.0154C13.3595 31.2605 13.6557 31.4039 13.9695 31.4058C14.0417 31.4131 14.1144 31.4131 14.1866 31.4058L18.3525 30.4464L26.3511 22.4782L21.8872 18.0244L13.919 26.0028Z" fill="black"/>
  <path d="M28.8659 18.4891L25.8866 15.5098C25.4788 15.1041 24.8199 15.1041 24.4121 15.5098L22.7559 17.1661L27.2146 21.6249L28.8709 19.9686C29.0667 19.7719 29.1761 19.5054 29.1752 19.2278C29.1742 18.9503 29.063 18.6845 28.8659 18.4891Z" fill="black"/>
</svg>