<svg xmlns="http://www.w3.org/2000/svg" width="13" height="13" viewBox="0 0 13 13" fill="none">
  <path fill-rule="evenodd" clip-rule="evenodd" d="M6.76289 1.14699C6.49725 1.10185 6.13513 1.09842 5.48186 1.09842C4.37595 1.09842 3.58989 1.09934 2.99391 1.1791C2.41007 1.25724 2.07459 1.40381 1.83073 1.64766C1.58655 1.89185 1.44018 2.2263 1.36214 2.8068C1.28242 3.39975 1.2815 4.18138 1.2815 5.28162V7.58958C1.2815 8.68978 1.28242 9.47137 1.36214 10.0643C1.44018 10.6448 1.58655 10.9793 1.83073 11.2234C2.07492 11.4677 2.40937 11.614 2.98988 11.6921C3.58282 11.7718 4.36445 11.7727 5.46467 11.7727H7.77262C8.87282 11.7727 9.65447 11.7718 10.2474 11.6921C10.8279 11.614 11.1624 11.4677 11.4066 11.2234C11.6507 10.9793 11.7971 10.6448 11.8751 10.0643C11.9549 9.47137 11.9558 8.68978 11.9558 7.58958V7.33732C11.9558 6.45106 11.9496 6.03096 11.8555 5.71436H10.0496C9.39598 5.71436 8.8618 5.71436 8.44014 5.65764C7.99932 5.59839 7.61718 5.47012 7.31213 5.1651C7.00707 4.86004 6.87881 4.47789 6.81955 4.0371C6.76289 3.61539 6.76289 3.08126 6.76289 2.42763V1.14699ZM7.62837 1.59432V2.39665C7.62837 3.08887 7.6293 3.5645 7.6773 3.92177C7.72369 4.26659 7.80666 4.43567 7.92414 4.55311C8.04155 4.67055 8.21061 4.75354 8.55548 4.7999C8.91275 4.84793 9.38836 4.84885 10.0806 4.84885H11.2458C11.0747 4.68294 10.8556 4.48415 10.571 4.22802L8.28683 2.17227C8.00676 1.92022 7.79835 1.73416 7.62837 1.59432ZM5.56593 0.232924C6.36483 0.232711 6.88094 0.232578 7.35598 0.414866C7.83101 0.59716 8.21298 0.94108 8.80387 1.47318C8.82424 1.49155 8.8449 1.51014 8.86584 1.52896L11.15 3.58471C11.1743 3.60659 11.1983 3.6282 11.222 3.64955C11.905 4.26384 12.3466 4.66106 12.5842 5.19445C12.8217 5.72781 12.8216 6.32182 12.8213 7.24038C12.8213 7.27229 12.8213 7.3046 12.8213 7.33732V7.62212C12.8213 8.68245 12.8213 9.52237 12.7329 10.1797C12.6419 10.8561 12.4503 11.4036 12.0186 11.8355C11.5867 12.2673 11.0392 12.4589 10.3627 12.5498C9.70542 12.6382 8.86555 12.6382 7.80516 12.6382H5.43212C4.37175 12.6382 3.53186 12.6382 2.87455 12.5498C2.19808 12.4589 1.65055 12.2673 1.21875 11.8355C0.78695 11.4036 0.595321 10.8561 0.504376 10.1797C0.415998 9.52237 0.416004 8.68245 0.416016 7.62212V5.24904C0.416004 4.18867 0.415998 3.34879 0.504376 2.69148C0.595321 2.01501 0.78695 1.46747 1.21875 1.03567C1.65088 0.603542 2.20025 0.41212 2.87911 0.321267C3.53916 0.232924 4.38322 0.23293 5.44939 0.232942H5.48186C5.51019 0.232942 5.53823 0.232936 5.56593 0.232924Z" fill="black"/>
  <path fill-rule="evenodd" clip-rule="evenodd" d="M4.89441 6.98522C4.72795 6.82915 4.46893 6.82915 4.30247 6.98522L3.14849 8.06707C2.97413 8.23054 2.9653 8.50437 3.12876 8.67874C3.29222 8.85311 3.56607 8.86193 3.74043 8.69847L4.1657 8.29977V10.1859C4.1657 10.4249 4.35944 10.6186 4.59844 10.6186C4.83743 10.6186 5.03118 10.4249 5.03118 10.1859V8.29977L5.45644 8.69847C5.63079 8.86193 5.90468 8.85311 6.06814 8.67874C6.2316 8.50437 6.22272 8.23054 6.04841 8.06707L4.89441 6.98522Z" fill="black"/>
</svg>