<svg xmlns="http://www.w3.org/2000/svg" width="13" height="13" viewBox="0 0 13 13" fill="none">
  <path d="M1.94651 1.11621H3.79693C4.47826 1.11621 5.03054 1.66852 5.03054 2.34983V4.20025C5.03054 4.88156 4.47826 5.43386 3.79693 5.43386H1.94651C1.26518 5.43386 0.712891 4.88156 0.712891 4.20025V2.34983C0.712891 1.66852 1.26518 1.11621 1.94651 1.11621Z" stroke="black" stroke-linecap="round" stroke-linejoin="round"/>
  <path d="M8.73166 1.11621H10.5821C11.2634 1.11621 11.8157 1.66852 11.8157 2.34983V4.20025C11.8157 4.88156 11.2634 5.43386 10.5821 5.43386H8.73166C8.05035 5.43386 7.49805 4.88156 7.49805 4.20025V2.34983C7.49805 1.66852 8.05035 1.11621 8.73166 1.11621Z" stroke="black" stroke-linecap="round" stroke-linejoin="round"/>
  <path d="M1.94651 7.90088H3.79693C4.47826 7.90088 5.03054 8.45317 5.03054 9.13449V10.9849C5.03054 11.6662 4.47826 12.2185 3.79693 12.2185H1.94651C1.26518 12.2185 0.712891 11.6662 0.712891 10.9849V9.13449C0.712891 8.45317 1.26518 7.90088 1.94651 7.90088Z" stroke="black" stroke-linecap="round" stroke-linejoin="round"/>
  <path d="M8.73166 7.90088H10.5821C11.2634 7.90088 11.8157 8.45317 11.8157 9.13449V10.9849C11.8157 11.6662 11.2634 12.2185 10.5821 12.2185H8.73166C8.05035 12.2185 7.49805 11.6662 7.49805 10.9849V9.13449C7.49805 8.45317 8.05035 7.90088 8.73166 7.90088Z" stroke="black" stroke-linecap="round" stroke-linejoin="round"/>
</svg>