<svg xmlns="http://www.w3.org/2000/svg" width="14.098" height="14.105" viewBox="0 0 14.098 14.105">
  <path id="instagram-svgrepo-com" d="M12.007,2H6.1A3.764,3.764,0,0,0,2,6.1V12a3.766,3.766,0,0,0,4.1,4.1H12a3.764,3.764,0,0,0,4.1-4.1V6.1A3.755,3.755,0,0,0,12.007,2ZM9.052,11.789a2.736,2.736,0,1,1,2.736-2.736A2.739,2.739,0,0,1,9.052,11.789Zm4.175-6.347a.814.814,0,0,1-.148.233.814.814,0,0,1-.233.148.7.7,0,0,1-.769-.148.814.814,0,0,1-.148-.233.665.665,0,0,1,0-.536.728.728,0,0,1,.148-.233.7.7,0,0,1,.635-.19.425.425,0,0,1,.134.042.534.534,0,0,1,.127.063,1.111,1.111,0,0,1,.106.085.728.728,0,0,1,.148.233.665.665,0,0,1,0,.536Z" transform="translate(-2 -2)"/>
</svg>
