<svg xmlns="http://www.w3.org/2000/svg" width="15" height="14" viewBox="0 0 15 14" fill="none">
  <path d="M10.9842 1.36893C10.9435 1.24352 10.8546 1.13945 10.7372 1.07959C10.6196 1.01967 10.4832 1.00899 10.3577 1.04976L8.27792 1.72563C8.01681 1.81047 7.87383 2.09093 7.95875 2.35204L8.06269 2.67207L2.77224 6.55816L0.68532 7.23621C0.559905 7.27698 0.455834 7.36587 0.395976 7.48333C0.336119 7.60079 0.32538 7.73727 0.366147 7.86269L1.63415 11.7645C1.70243 11.9745 1.89731 12.1081 2.10685 12.1081C2.15782 12.1081 2.20959 12.1002 2.26063 12.0837L4.34722 11.4056L5.41929 11.4112C5.63459 12.4278 6.53874 13.193 7.61843 13.193C8.68989 13.193 9.58809 12.4393 9.8122 11.4344L10.9117 11.4401L11.0156 11.7602C11.0563 11.8857 11.1452 11.9897 11.2628 12.0496C11.3333 12.0855 11.4107 12.1037 11.4885 12.1037C11.5402 12.1037 11.5921 12.0957 11.6421 12.0794L13.722 11.4036C13.9831 11.3188 14.126 11.0383 14.0412 10.7772L10.9842 1.36893ZM2.42609 10.9844L1.46545 8.02814L2.68275 7.63261L3.64325 10.5888L2.42609 10.9844ZM7.61836 12.1987C7.0939 12.1987 6.64434 11.8748 6.45748 11.4167L8.77474 11.4289C8.58496 11.8807 8.13825 12.1987 7.61836 12.1987ZM4.63146 10.4128L4.10859 8.80351L3.58572 7.19425L8.38617 3.66817L9.85834 8.19883L10.5879 10.4442L4.63146 10.4128ZM11.8076 10.9802L11.7465 10.7924L11.7463 10.7913L10.4328 6.74887L9.05799 2.51756L10.1922 2.14893L12.9418 10.6115L11.8076 10.9802Z" fill="black" stroke="#F5F8FA" stroke-width="0.1"/>
  <path d="M8.23047 3.68965L9.4646 2.77734L9.9834 3.28984L12.2458 10.5523H10.2397L8.23047 3.68965Z" fill="#F5F8FA"/>
</svg>