<svg xmlns="http://www.w3.org/2000/svg" width="27" height="27" viewBox="0 0 27 27" fill="none">
  <path fill-rule="evenodd" clip-rule="evenodd" d="M10.3342 6.33252H10.44C12.566 6.33251 14.2321 6.3325 15.5321 6.50728C16.8626 6.68618 17.9127 7.05949 18.7368 7.88362C19.5609 8.70774 19.9342 9.7577 20.1131 11.0883C20.2879 12.3883 20.2879 14.0544 20.2879 16.1804V16.2862C20.2879 16.5757 20.2879 16.8567 20.2874 17.1295C20.2877 17.1377 20.2879 17.146 20.2879 17.1543C20.2879 17.1634 20.2877 17.1724 20.2873 17.1816C20.2842 18.8873 20.2625 20.2666 20.1131 21.3783C19.9342 22.7089 19.5609 23.7589 18.7368 24.583C17.9127 25.4071 16.8626 25.7804 15.5321 25.9594C14.2321 26.1341 12.566 26.1341 10.44 26.1341H10.3342C8.20821 26.1341 6.54209 26.1341 5.24211 25.9594C3.9115 25.7804 2.86155 25.4071 2.03742 24.583C1.2133 23.7589 0.839985 22.7089 0.661089 21.3783C0.511627 20.2666 0.489985 18.8873 0.486853 17.1815C0.486504 17.1724 0.486328 17.1634 0.486328 17.1543C0.486328 17.146 0.486475 17.1377 0.486761 17.1295C0.486328 16.8567 0.486328 16.5757 0.486328 16.2862V16.1804C0.486319 14.0544 0.486309 12.3883 0.661089 11.0883C0.839985 9.7577 1.2133 8.70774 2.03742 7.88362C2.86155 7.05949 3.9115 6.68618 5.24211 6.50728C6.54209 6.3325 8.20821 6.33251 10.3342 6.33252ZM1.87105 17.845C1.87975 19.2289 1.91184 20.3133 2.03027 21.1942C2.18857 22.3716 2.48964 23.0814 3.01429 23.6061C3.53894 24.1308 4.24877 24.4319 5.42619 24.5901C6.62348 24.7511 8.19675 24.7526 10.3871 24.7526C12.5774 24.7526 14.1507 24.7511 15.348 24.5901C16.5254 24.4319 17.2352 24.1308 17.7599 23.6061C18.2846 23.0814 18.5857 22.3716 18.7439 21.1942C18.8623 20.3133 18.8945 19.2289 18.9031 17.845H16.6865C15.7896 17.845 15.5551 17.8598 15.3582 17.9504C15.1614 18.0409 14.9975 18.2094 14.4139 18.8903L13.8562 19.5409C13.8291 19.5726 13.8023 19.6039 13.7758 19.6348C13.3134 20.1755 12.9471 20.6037 12.4402 20.8368C11.9334 21.0699 11.3698 21.0694 10.6583 21.0686C10.6176 21.0686 10.5764 21.0686 10.5347 21.0686H10.2395C10.1977 21.0686 10.1566 21.0686 10.1159 21.0686C9.40438 21.0694 8.84082 21.0699 8.33396 20.8368C7.82707 20.6037 7.4608 20.1755 6.99835 19.6348C6.97187 19.6039 6.94508 19.5726 6.91793 19.5409L6.36033 18.8903C5.77665 18.2094 5.61282 18.0409 5.41594 17.9504C5.21907 17.8598 4.98456 17.845 4.08768 17.845H1.87105ZM18.9064 16.4635H16.6865C16.6447 16.4635 16.6036 16.4635 16.5629 16.4635C15.8514 16.4627 15.2878 16.4622 14.781 16.6953C14.2741 16.9284 13.9078 17.3566 13.4454 17.8973C13.4188 17.9282 13.3921 17.9595 13.365 17.9912L12.8073 18.6418C12.2237 19.3227 12.0598 19.4912 11.863 19.5817C11.6661 19.6723 11.4316 19.6871 10.5347 19.6871H10.2395C9.34258 19.6871 9.1081 19.6723 8.91119 19.5817C8.71437 19.4912 8.55052 19.3227 7.96685 18.6418L7.40925 17.9912C7.3821 17.9595 7.3553 17.9282 7.32882 17.8973C6.86637 17.3566 6.50011 16.9284 5.99322 16.6953C5.48631 16.4622 4.92284 16.4627 4.21136 16.4635C4.17062 16.4635 4.1294 16.4635 4.08768 16.4635H1.86784C1.86783 16.3876 1.86783 16.3108 1.86783 16.2333C1.86783 14.0429 1.8693 12.4697 2.03027 11.2724C2.18857 10.095 2.48964 9.38513 3.01429 8.86049C3.53894 8.33583 4.24877 8.03476 5.42619 7.87646C6.62348 7.71549 8.19675 7.71402 10.3871 7.71402C12.5774 7.71402 14.1507 7.71549 15.348 7.87646C16.5254 8.03476 17.2352 8.33583 17.7599 8.86049C18.2846 9.38513 18.5857 10.095 18.7439 11.2724C18.9049 12.4697 18.9064 14.0429 18.9064 16.2333C18.9064 16.3108 18.9064 16.3876 18.9064 16.4635Z" fill="black"/>
  <ellipse cx="17.9863" cy="8.40474" rx="8.28901" ry="8.28902" fill="white"/>
  <ellipse cx="18.4462" cy="8.40466" rx="3.2235" ry="3.22351" fill="#F5D446"/>
</svg>