<svg xmlns="http://www.w3.org/2000/svg" width="10" height="14" viewBox="0 0 10 14" fill="none">
  <path d="M5.26473 11.3674H5.27148M3.37569 13.3914H7.15376C7.90945 13.3914 8.28732 13.3914 8.57594 13.2443C8.82981 13.115 9.03626 12.9085 9.16559 12.6546C9.31266 12.366 9.31266 11.9881 9.31266 11.2325V3.40646C9.31266 2.65077 9.31266 2.27293 9.16559 1.9843C9.03626 1.7304 8.82981 1.52399 8.57594 1.39463C8.28732 1.24756 7.90945 1.24756 7.15376 1.24756H3.37569C2.62001 1.24756 2.24217 1.24756 1.95353 1.39463C1.69964 1.52399 1.49322 1.7304 1.36387 1.9843C1.2168 2.27293 1.2168 2.65077 1.2168 3.40646V11.2325C1.2168 11.9881 1.2168 12.366 1.36387 12.6546C1.49322 12.9085 1.69964 13.115 1.95353 13.2443C2.24217 13.3914 2.62001 13.3914 3.37569 13.3914Z" stroke="black" stroke-linecap="round" stroke-linejoin="round"/>
</svg>