<svg xmlns="http://www.w3.org/2000/svg" width="15" height="16" viewBox="0 0 15 16" fill="none">
  <path d="M5.40797 12.1211V12.9454C5.40797 14.311 6.51499 15.418 7.88064 15.418C9.2463 15.418 10.3533 14.311 10.3533 12.9454V12.1211M5.40797 12.1211H10.3533M5.40797 12.1211H2.4486C2.13334 12.1211 1.97492 12.1211 1.84725 12.0781C1.60336 11.9959 1.41256 11.8043 1.3303 11.5605C1.28711 11.4323 1.28711 11.2734 1.28711 10.9556C1.28711 10.8166 1.28728 10.7471 1.29815 10.6807C1.31868 10.5555 1.36731 10.4367 1.44132 10.3336C1.48047 10.2791 1.53017 10.2294 1.62826 10.1313L1.94929 9.81027C2.05289 9.70667 2.11109 9.56614 2.11109 9.41967V6.35159C2.11109 3.16514 4.6942 0.582023 7.88064 0.582031C11.0671 0.582039 13.6502 3.16515 13.6502 6.35159V9.41967C13.6502 9.56622 13.7085 9.70667 13.8121 9.81027L14.1331 10.1313C14.2315 10.2296 14.2807 10.279 14.3199 10.3336C14.3939 10.4368 14.443 10.5555 14.4635 10.6807C14.4744 10.7471 14.4744 10.8166 14.4744 10.9557C14.4744 11.2734 14.4744 11.4323 14.4312 11.5604C14.3489 11.8043 14.1573 11.9959 13.9134 12.0781C13.7857 12.1211 13.6279 12.1211 13.3126 12.1211H10.3533" stroke="black" stroke-linecap="round" stroke-linejoin="round"/>
</svg>