<svg xmlns="http://www.w3.org/2000/svg" width="13" height="13" viewBox="0 0 13 13" fill="none">
  <path d="M1.13255 7.87105C0.693241 5.8209 0.473588 4.79588 1.02423 4.11474C1.57488 3.43359 2.62321 3.43359 4.71985 3.43359H7.8726C9.96929 3.43359 11.0176 3.43359 11.5682 4.11474C12.1189 4.79588 11.8992 5.8209 11.4599 7.87105L11.1979 9.09397C10.9001 10.4835 10.7512 11.1783 10.2467 11.5861C9.74219 11.994 9.03168 11.994 7.61054 11.994H4.9819C3.56079 11.994 2.85024 11.994 2.34574 11.5861C1.84125 11.1783 1.69237 10.4835 1.39461 9.09397L1.13255 7.87105Z" stroke="black"/>
  <path d="M3.84961 6.49072H8.74126" stroke="black" stroke-linecap="round" stroke-linejoin="round"/>
  <path d="M5.07422 8.3252H7.52004" stroke="black" stroke-linecap="round" stroke-linejoin="round"/>
  <path d="M9.96523 3.43362L8.13086 0.987793" stroke="black" stroke-linecap="round" stroke-linejoin="round"/>
  <path d="M2.62695 3.43362L4.46132 0.987793" stroke="black" stroke-linecap="round" stroke-linejoin="round"/>
</svg>