<svg xmlns="http://www.w3.org/2000/svg" width="12" height="12" viewBox="0 0 12 12" fill="none">
  <path d="M0.38665 10.4288L2.51858 8.30314C1.83073 7.42683 1.4575 6.34469 1.45888 5.23066C1.45888 2.46023 3.70476 0.214355 6.47519 0.214355C9.24561 0.214355 11.4915 2.46023 11.4915 5.23066C11.4915 8.00108 9.24561 10.247 6.47519 10.247C5.36116 10.2483 4.27901 9.87511 3.4027 9.18726L1.27704 11.3192C1.15931 11.4379 0.999037 11.5047 0.831845 11.5047C0.664654 11.5047 0.504386 11.4379 0.386649 11.3192C0.267942 11.2015 0.201172 11.0412 0.201172 10.874C0.201172 10.7068 0.267942 10.5465 0.38665 10.4288ZM10.2374 5.23066C10.2374 3.15284 8.553 1.46843 6.47518 1.46843C4.39736 1.46843 2.71296 3.15284 2.71296 5.23066C2.71296 7.30848 4.39736 8.99288 6.47518 8.99288C8.55301 8.99288 10.2374 7.30848 10.2374 5.23066Z" fill="black"/>
</svg>