<svg xmlns="http://www.w3.org/2000/svg" width="14.847" height="14.104" viewBox="0 0 14.847 14.104">
  <g id="Page-1" transform="translate(0 0)">
    <g id="Dribbble-Light-Preview" transform="translate(0)">
      <g id="icons">
        <path id="snapchat-_136_" data-name="snapchat-[#136]" d="M331.517,7414.1a3.145,3.145,0,0,1-2.184-.794,2.67,2.67,0,0,0-2.571-.549c-.532.1-.522.06-.636-.475-.061-.274-.1-.446-.209-.468-1.108-.17-1.764-.423-1.895-.735a.188.188,0,0,1,.126-.283,4.443,4.443,0,0,0,3.121-2.65s0-.007,0-.007a.817.817,0,0,0,.076-.676c-.174-.416-.736-.5-1.139-.667-.278-.112-.734-.342-.673-.668a.627.627,0,0,1,.784-.364,1.3,1.3,0,0,0,1.3.066c-.007-.14.089-.3.089-.445,0-1.025-.258-2.3.064-3.029a4.089,4.089,0,0,1,7.412,0,7.657,7.657,0,0,1,.179,3.029l0,.052c-.009.133-.017.267-.024.393a.576.576,0,0,0,.393.134,1.833,1.833,0,0,0,.709-.2c.31-.141.867.082.873.416,0,.156-.112.393-.679.617-.4.163-.965.251-1.139.667a.814.814,0,0,0,.076.676s0,.007,0,.007a4.6,4.6,0,0,0,3.121,2.65.181.181,0,0,1,.149.186.289.289,0,0,1-.024.1c-.13.312-.785.564-1.894.735-.1.015-.148.185-.208.468-.091.423-.077.571-.637.46a2.717,2.717,0,0,0-2.57.557,3.256,3.256,0,0,1-2,.8" transform="translate(-324 -7400)" fill-rule="evenodd"/>
      </g>
    </g>
  </g>
</svg>
