<svg xmlns="http://www.w3.org/2000/svg" width="13" height="14" viewBox="0 0 13 14" fill="none">
  <path d="M7.39685 12.2324H5.13387V13.0811H7.39685V12.2324ZM1.03221 8.13078V5.86779H0.183594V8.13078H1.03221ZM11.4985 7.88349V8.13078H12.3471V7.88349H11.4985ZM7.90105 2.81905L10.1407 4.83475L10.7084 4.20397L8.46877 2.18828L7.90105 2.81905ZM12.3471 7.88349C12.3471 6.92828 12.3557 6.3235 12.1147 5.78235L11.3395 6.12758C11.49 6.4655 11.4985 6.85332 11.4985 7.88349H12.3471ZM10.1407 4.83475C10.9064 5.52387 11.189 5.78971 11.3395 6.12758L12.1147 5.78235C11.8737 5.24117 11.4184 4.84296 10.7084 4.20397L10.1407 4.83475ZM5.15073 1.76613C6.04563 1.76613 6.38332 1.77268 6.6843 1.88818L6.98833 1.09589C6.50643 0.910958 5.98136 0.917509 5.15073 0.917509V1.76613ZM8.46877 2.18828C7.85437 1.63532 7.47023 1.2808 6.98833 1.09589L6.6843 1.88818C6.98539 2.0037 7.23929 2.22346 7.90105 2.81905L8.46877 2.18828ZM5.13387 12.2324C4.0551 12.2324 3.2887 12.2315 2.7073 12.1533C2.13811 12.0769 1.81018 11.9333 1.57075 11.6939L0.970682 12.294C1.39407 12.7173 1.93093 12.9052 2.59423 12.9944C3.24531 13.082 4.07908 13.0811 5.13387 13.0811V12.2324ZM0.183594 8.13078C0.183594 9.18555 0.182694 10.0193 0.270227 10.6704C0.359405 11.3337 0.547301 11.8706 0.970682 12.294L1.57075 11.6939C1.33132 11.4545 1.1878 11.1265 1.11128 10.5574C1.03311 9.97596 1.03221 9.20954 1.03221 8.13078H0.183594ZM7.39685 13.0811C8.45163 13.0811 9.28543 13.082 9.93649 12.9944C10.5998 12.9052 11.1367 12.7173 11.5601 12.294L10.96 11.6939C10.7206 11.9333 10.3926 12.0769 9.82345 12.1533C9.24203 12.2315 8.47562 12.2324 7.39685 12.2324V13.0811ZM11.4985 8.13078C11.4985 9.20954 11.4976 9.97596 11.4194 10.5574C11.3429 11.1265 11.1994 11.4545 10.96 11.6939L11.5601 12.294C11.9834 11.8706 12.1713 11.3337 12.2605 10.6704C12.348 10.0193 12.3471 9.18555 12.3471 8.13078H11.4985ZM1.03221 5.86779C1.03221 4.78901 1.03311 4.02261 1.11128 3.44122C1.1878 2.87203 1.33132 2.54409 1.57075 2.30466L0.970682 1.7046C0.547301 2.12799 0.359405 2.66484 0.270227 3.32814C0.182694 3.97923 0.183594 4.813 0.183594 5.86779H1.03221ZM5.15073 0.917509C4.09028 0.917509 3.25244 0.916615 2.59869 1.00411C1.93306 1.0932 1.3944 1.28089 0.970682 1.7046L1.57075 2.30466C1.80985 2.06557 2.13879 1.92185 2.71126 1.84523C3.29562 1.76702 4.06637 1.76613 5.15073 1.76613V0.917509Z" fill="black"/>
  <path d="M2.87109 8.41357H7.39706" stroke="black" stroke-linecap="round"/>
  <path d="M2.87109 10.3936H5.9827" stroke="black" stroke-linecap="round"/>
  <path d="M6.83203 1.62451V3.03888C6.83203 4.37235 6.83203 5.03909 7.24627 5.45335C7.66057 5.86761 8.3273 5.86761 9.66076 5.86761H11.9237" stroke="black"/>
</svg>