<svg xmlns="http://www.w3.org/2000/svg" width="30" height="23" viewBox="0 0 50 24" fill="none">
  <g filter="url(#filter0_bd_1_9173)">
    <path d="M32.9741 1.04688H16.8849C14.9313 1.04688 13.4373 2.54087 13.4373 4.49456V20.5837C13.4373 22.5374 14.9313 24.0314 16.8849 24.0314H32.9741C34.9278 24.0314 36.4218 22.5374 36.4218 20.5837V4.49456C36.4218 2.54087 34.9278 1.04688 32.9741 1.04688ZM34.1234 14.7227L31.9398 12.5392C30.5607 11.275 28.3772 11.275 27.1131 12.5392L26.0788 13.5735L22.746 10.2407C21.3669 8.97654 19.1834 8.97654 17.9192 10.2407L15.7357 12.4242V4.49456C15.7357 3.80502 16.1954 3.34533 16.8849 3.34533H32.9741C33.6637 3.34533 34.1234 3.80502 34.1234 4.49456V14.7227Z" fill="#000000"/>
    <path d="M32.9741 1.04688H16.8849C14.9313 1.04688 13.4373 2.54087 13.4373 4.49456V20.5837C13.4373 22.5374 14.9313 24.0314 16.8849 24.0314H32.9741C34.9278 24.0314 36.4218 22.5374 36.4218 20.5837V4.49456C36.4218 2.54087 34.9278 1.04688 32.9741 1.04688ZM34.1234 14.7227L31.9398 12.5392C30.5607 11.275 28.3772 11.275 27.1131 12.5392L26.0788 13.5735L22.746 10.2407C21.3669 8.97654 19.1834 8.97654 17.9192 10.2407L15.7357 12.4242V4.49456C15.7357 3.80502 16.1954 3.34533 16.8849 3.34533H32.9741C33.6637 3.34533 34.1234 3.80502 34.1234 4.49456V14.7227Z" stroke="#FFFFFF"/>
  </g>
  <defs>
    <filter id="filter0_bd_1_9173" x="0.437256" y="-9.45312" width="48.9846" height="61.4846" filterUnits="userSpaceOnUse" color-interpolation-filters="sRGB">
      <feFlood flood-opacity="0" result="BackgroundImageFix"/>
      <feGaussianBlur in="BackgroundImageFix" stdDeviation="5"/>
      <feComposite in2="SourceAlpha" operator="in" result="effect1_backgroundBlur_1_9173"/>
      <feColorMatrix in="SourceAlpha" type="matrix" values="0 0 0 0 0 0 0 0 0 0 0 0 0 0 0 0 0 0 127 0" result="hardAlpha"/>
      <feOffset dy="15"/>
      <feGaussianBlur stdDeviation="6.25"/>
      <feComposite in2="hardAlpha" operator="out"/>
      <feColorMatrix type="matrix" values="0 0 0 0 0.25 0 0 0 0 0.25 0 0 0 0 0.25 0 0 0 0.3 0"/>
      <feBlend mode="normal" in2="effect1_backgroundBlur_1_9173" result="effect2_dropShadow_1_9173"/>
      <feBlend mode="normal" in="SourceGraphic" in2="effect2_dropShadow_1_9173" result="shape"/>
    </filter>
  </defs>
</svg>
