<svg xmlns="http://www.w3.org/2000/svg" width="23" height="28" viewBox="0 0 23 28" fill="none">
  <rect x="8.95898" y="2.30322" width="5.83386" height="10.483" fill="#FF5F00"/>
  <path d="M9.32895 7.54673C9.32895 5.4181 10.328 3.52552 11.8665 2.30313C10.7368 1.41373 9.31209 0.878418 7.75246 0.878418C4.06836 0.878418 1.08398 3.85851 1.08398 7.54673C1.08398 11.235 4.06836 14.2151 7.75246 14.2151C9.30787 14.2151 10.7368 13.6797 11.8665 12.7904C10.328 11.5848 9.32895 9.67538 9.32895 7.54673Z" fill="#EB001B"/>
  <path d="M22.6653 7.54673C22.6653 11.235 19.681 14.2151 15.9969 14.2151C14.4414 14.2151 13.0125 13.6797 11.8828 12.7904C13.4382 11.568 14.4204 9.67958 14.4204 7.54673C14.4204 5.41389 13.4214 3.52552 11.8828 2.30313C13.0125 1.41373 14.4373 0.878418 15.9969 0.878418C19.681 0.878418 22.6653 3.87537 22.6653 7.54673Z" fill="#F79E1B"/>
  <path d="M9.78115 20.9956L8.6875 27.8011H10.4356L11.5285 20.9956H9.78115ZM15.0539 23.7678C14.443 23.4661 14.0686 23.2625 14.0686 22.954C14.076 22.6735 14.3852 22.3861 15.0757 22.3861C15.6436 22.3718 16.0611 22.5053 16.3777 22.6381L16.5364 22.7089L16.774 21.285C16.4287 21.1516 15.8813 21.0045 15.2051 21.0045C13.4788 21.0045 12.2633 21.902 12.2558 23.1856C12.2415 24.1328 13.126 24.6585 13.788 24.9738C14.4642 25.2973 14.6944 25.507 14.6944 25.7944C14.6869 26.2356 14.1476 26.4392 13.6443 26.4392C12.9471 26.4392 12.5725 26.3344 12.0039 26.0885L11.7737 25.9836L11.5293 27.4634C11.9399 27.6459 12.6951 27.8065 13.4789 27.8148C15.3134 27.8148 16.5072 26.9309 16.5222 25.5629C16.5282 24.8124 16.0617 24.2376 15.0539 23.7678ZM21.2555 21.0167H19.903C19.4863 21.0167 19.1696 21.1365 18.9892 21.5642L16.3926 27.8011H18.2271L18.7324 26.4508H20.7849L21.047 27.8065H22.665L21.2555 21.0167ZM19.2412 25.0881C19.2766 25.0915 19.9453 22.8838 19.9453 22.8838L20.4778 25.0881C20.4778 25.0881 19.5864 25.0881 19.2412 25.0881ZM7.22684 20.9956L5.5142 25.6193L5.32763 24.7075C5.01096 23.6554 4.01814 22.5121 2.91016 21.9442L4.47844 27.7943H6.32798L9.0764 20.9964L7.22684 20.9956Z" fill="#2394BC"/>
  <path d="M4.75246 21.8734C4.61899 21.3545 4.19335 21.0045 3.61527 20.9971H0.902933L0.875 21.123C2.99081 21.6446 4.76672 23.2496 5.34286 24.7593L4.75246 21.8734Z" fill="#EFC75E"/>
</svg>