<svg xmlns="http://www.w3.org/2000/svg" width="17" height="18" viewBox="0 0 17 18" fill="none">
  <path d="M12.2565 10.6787C12.0425 10.5773 11.0176 10.0705 10.8262 9.99168C10.6347 9.91285 10.4996 9.89032 10.3531 10.1043C10.2067 10.3183 9.81255 10.78 9.68867 10.9265C9.56478 11.0729 9.45216 11.0841 9.23818 10.9265C8.62357 10.6798 8.05594 10.3293 7.5601 9.89032C7.11124 9.46772 6.73124 8.97752 6.43386 8.43749C6.30998 8.23477 6.43387 8.12214 6.52396 8.00952C6.61406 7.8969 6.72669 7.77301 6.83931 7.64912C6.92167 7.54199 6.98981 7.42463 7.04203 7.29999C7.09863 7.18257 7.09863 7.04576 7.04203 6.92834C7.04203 6.82698 6.56901 5.80211 6.38882 5.3854C6.20862 4.9687 6.05095 5.02501 5.92706 5.02501H5.47657C5.26197 5.03338 5.05945 5.12653 4.91346 5.28404C4.43706 5.73865 4.17177 6.37128 4.18141 7.0297C4.23901 7.8293 4.53302 8.59373 5.02608 9.22585C5.93086 10.5699 7.1687 11.6564 8.61875 12.3793C9.11429 12.5933 9.49721 12.7172 9.80129 12.8185C10.2283 12.9476 10.6796 12.9746 11.119 12.8974C11.7088 12.7777 12.2226 12.4188 12.538 11.9063C12.6679 11.5931 12.7107 11.2507 12.6619 10.9152C12.6056 10.8364 12.4705 10.78 12.2565 10.6787Z" fill="white"/>
  <path d="M14.3627 3.00869C12.7892 1.42028 10.6407 0.534904 8.40493 0.55351C5.42152 0.569122 2.67144 2.16989 1.18449 4.75639C-0.302454 7.34289 -0.301956 10.5249 1.1858 13.111L0.0595703 17.447L4.49692 16.3207C5.72364 16.9883 7.09845 17.3368 8.49503 17.3343H8.40493C11.8095 17.3565 14.8889 15.3165 16.1963 12.1729C17.5036 9.02935 16.7789 5.40724 14.3627 3.00869ZM8.40493 15.8928C7.15544 15.8938 5.92918 15.5551 4.85731 14.9129L4.60954 14.7665L1.97416 15.4535L2.67242 12.8857L2.51475 12.6267C0.652987 9.62844 1.32999 5.71132 4.09008 3.51187C6.85017 1.31242 10.8196 1.52694 13.3266 4.01104C14.6382 5.31209 15.3726 7.08522 15.365 8.93266C15.3588 12.774 12.2463 15.8866 8.40493 15.8928Z" fill="white"/>
</svg>