<svg xmlns="http://www.w3.org/2000/svg" width="13" height="13" viewBox="0 0 13 13" fill="none">
  <path d="M10.4138 1.87319C9.85247 1.30765 9.1843 0.859356 8.44821 0.554376C7.71205 0.249396 6.92259 0.0938324 6.12578 0.0967191C5.06058 0.0977608 4.01428 0.378658 3.09176 0.911279C2.16924 1.4439 1.40286 2.20955 0.869355 3.13155C0.335845 4.05356 0.0539527 5.09957 0.0518851 6.16477C0.0498257 7.23004 0.327675 8.27709 0.857608 9.20116L0 12.3483L3.21603 11.506C4.10408 12 5.10193 12.2634 6.11812 12.2717C7.73356 12.2718 9.28362 11.6337 10.4308 10.4965C11.5781 9.35929 12.2297 7.8149 12.2439 6.19953C12.2385 5.39346 12.0741 4.59637 11.76 3.85397C11.446 3.11157 10.9885 2.43845 10.4138 1.87319ZM6.12578 11.2227C5.22046 11.2233 4.3317 10.9799 3.55295 10.5182L3.36918 10.4033L1.46253 10.9087L1.96791 9.04802L1.84539 8.85659C1.19395 7.80502 0.950828 6.551 1.16208 5.33212C1.37332 4.11328 2.02427 3.01424 2.9916 2.24321C3.95894 1.47218 5.17544 1.08271 6.4107 1.14858C7.64597 1.21445 8.81423 1.73109 9.69404 2.60063C10.6558 3.54108 11.2063 4.82391 11.2255 6.1689C11.2134 7.51343 10.6707 8.79878 9.71564 9.74529C8.76063 10.6917 7.47038 11.2227 6.12578 11.2227ZM8.89003 7.44C8.73689 7.36343 7.99414 6.99588 7.85631 6.94994C7.71848 6.904 7.61128 6.87337 7.51173 7.02651C7.36196 7.2318 7.20085 7.42859 7.02933 7.61612C6.9451 7.72332 6.85321 7.73098 6.70007 7.61612C5.82692 7.27108 5.09948 6.63553 4.64028 5.81667C4.47948 5.54867 4.79342 5.56398 5.0844 4.98969C5.10591 4.94827 5.11709 4.90232 5.11709 4.85569C5.11709 4.80906 5.10591 4.76311 5.0844 4.72169C5.0844 4.64511 4.73982 3.8947 4.6173 3.59607C4.49479 3.29744 4.37227 3.34338 4.27273 3.33572H3.9741C3.89672 3.33691 3.82049 3.35461 3.75051 3.38762C3.68052 3.42063 3.61839 3.4682 3.56826 3.52715C3.39645 3.69422 3.26244 3.89617 3.17527 4.11939C3.08809 4.34262 3.04977 4.58194 3.06289 4.82123C3.1109 5.39407 3.32663 5.94003 3.68312 6.39096C4.33567 7.36787 5.22996 8.15925 6.27892 8.68813C6.82909 9.00927 7.46847 9.14358 8.10134 9.07099C8.31207 9.02918 8.51169 8.9435 8.68712 8.81945C8.86262 8.69548 9.01002 8.5359 9.11975 8.35121C9.22144 8.12578 9.25345 7.87516 9.21164 7.63143C9.14272 7.55486 9.04318 7.51657 8.89003 7.44Z" fill="black"/>
</svg>